<svg xmlns="http://www.w3.org/2000/svg" width="22.72" height="28.103" viewBox="0 0 22.72 28.103">
  <g id="Group_1" data-name="Group 1" transform="translate(0 0)">
    <g id="house" transform="translate(0 0)">
      <g id="Group_2148" data-name="Group 2148" transform="translate(0 15.562)">
        <g id="Group_2147" data-name="Group 2147" transform="translate(0 0)">
          <path id="Path_149" data-name="Path 149" d="M2.223,241.023H.742a.694.694,0,0,0-.694.694V252.87a.694.694,0,0,0,.694.694H2.223a2.085,2.085,0,0,0,2.083-2.083v-8.376A2.085,2.085,0,0,0,2.223,241.023Z" transform="translate(-0.048 -241.023)" fill="#00a050"/>
        </g>
      </g>
      <g id="Group_2150" data-name="Group 2150" transform="translate(4.674 16.814)">
        <g id="Group_2149" data-name="Group 2149" transform="translate(0)">
          <path id="Path_150" data-name="Path 150" d="M139.517,265.669a1.384,1.384,0,0,0-1.833.18l-3.749,4.665a1.678,1.678,0,0,1-1.027.444H126.9a.694.694,0,0,1,0-1.388h5.553a1.388,1.388,0,1,0,0-2.777h-3.637c-.346,0-.518-.219-.791-.458a4.606,4.606,0,0,0-1.374-.847,4.862,4.862,0,0,0-4.609.522v9.16h10.413a4.182,4.182,0,0,0,3.332-1.666l4.026-5.877A1.4,1.4,0,0,0,139.517,265.669Z" transform="translate(-122.038 -265.133)" fill="#00a050"/>
        </g>
      </g>
      <g id="key" transform="translate(11.804 0) rotate(45)">
        <g id="Group_2151" data-name="Group 2151" transform="translate(0)">
          <path id="Path_151" data-name="Path 151" d="M13.983,1.455A4.972,4.972,0,0,0,5.735,6.5l-5.6,5.6a.452.452,0,0,0-.133.32v2.559a.452.452,0,0,0,.452.452H3.011a.452.452,0,0,0,.32-.133l.64-.64a.452.452,0,0,0,.129-.372l-.08-.687.952-.09a.452.452,0,0,0,.408-.408l.09-.952.687.08a.445.445,0,0,0,.353-.111.453.453,0,0,0,.151-.338v-.842h.827a.452.452,0,0,0,.32-.133l1.16-1.145a4.9,4.9,0,0,0,5.015-1.177A4.981,4.981,0,0,0,13.983,1.455Zm-1.28,3.2a1.357,1.357,0,1,1,0-1.919A1.358,1.358,0,0,1,12.7,4.653Z" transform="translate(0)" fill="#00a050"/>
        </g>
      </g>
    </g>
  </g>
</svg>
