<svg id="global-settings" xmlns="http://www.w3.org/2000/svg" width="22.72" height="19.957" viewBox="0 0 22.72 19.957">
  <path id="Path_156" data-name="Path 156" d="M15.095,37.98l.58-2.407.006-.023a1.67,1.67,0,0,1,1.178-1.178l1.759-.471a1.569,1.569,0,0,0-1.2-.563h-.519a7.73,7.73,0,0,0-.5-1.211l.367-.367a1.574,1.574,0,0,0,0-2.223l-1.11-1.11a1.572,1.572,0,0,0-2.223,0l-.367.367a7.751,7.751,0,0,0-1.211-.5v-.519A1.574,1.574,0,0,0,10.277,26.2H8.707a1.574,1.574,0,0,0-1.572,1.572v.519a7.744,7.744,0,0,0-1.211.5l-.367-.367a1.572,1.572,0,0,0-2.223,0l-1.109,1.11a1.574,1.574,0,0,0,0,2.223l.367.367a7.732,7.732,0,0,0-.5,1.211H1.572A1.574,1.574,0,0,0,0,34.91V36.48a1.574,1.574,0,0,0,1.572,1.572h.519a7.735,7.735,0,0,0,.5,1.211l-.367.367a1.574,1.574,0,0,0,0,2.223l1.11,1.109a1.572,1.572,0,0,0,2.223,0l.367-.367a7.731,7.731,0,0,0,1.211.5v.519a1.574,1.574,0,0,0,1.572,1.572h1.361a2.486,2.486,0,0,1,.535-2.715Zm-5.6,1.933A4.219,4.219,0,1,1,13.711,35.7,4.223,4.223,0,0,1,9.492,39.914Z" transform="translate(0 -26.203)" fill="#fff"/>
  <path id="Path_157" data-name="Path 157" d="M218.395,182.678l-.017-.017a.271.271,0,0,0-.187-.077.263.263,0,0,0-.186.077l-1.139,1.139a.923.923,0,0,1-1.305-1.306l1.139-1.139a.264.264,0,0,0,0-.373l-.017-.017a1.006,1.006,0,0,0-.972-.261l-2.339.627a1.009,1.009,0,0,0-.712.712l0,.006-.623,2.587-4.623,4.623a1.823,1.823,0,0,0,0,2.578l.11.11a1.811,1.811,0,0,0,1.289.534h0a1.811,1.811,0,0,0,1.289-.534l4.623-4.623,2.587-.623.006,0a1.009,1.009,0,0,0,.712-.712l.627-2.339A1.009,1.009,0,0,0,218.395,182.678Zm-8.86,7.893a.527.527,0,1,1,.154-.373A.524.524,0,0,1,209.535,190.571Zm3.108-3.294-2.182,2.182a.4.4,0,1,1-.559-.559l2.182-2.182a.4.4,0,1,1,.559.559Z" transform="translate(-195.969 -172.525)" fill="#fff"/>
</svg>
