<svg xmlns="http://www.w3.org/2000/svg" xmlns:xlink="http://www.w3.org/1999/xlink" width="17" height="23" viewBox="0 0 17 23">
  <defs>
    <clipPath id="clip-path">
      <rect width="17" height="23" fill="none"/>
    </clipPath>
  </defs>
  <g id="_Icons_6_Paper_3" data-name="_Icons / 6 Paper_3" clip-path="url(#clip-path)">
    <path id="_6_Paper_3" data-name="6 Paper_3" d="M14.639,23H2.361a2.36,2.36,0,0,1-1.67-.7A2.431,2.431,0,0,1,0,20.6V2.4A2.382,2.382,0,0,1,2.361,0h7.05a2.328,2.328,0,0,1,1.667.7l5.232,5.31A2.43,2.43,0,0,1,17,7.7V20.6A2.382,2.382,0,0,1,14.639,23ZM5.667,16.292a.959.959,0,0,0,0,1.917h5.666a.959.959,0,0,0,0-1.917Zm0-4.313a.959.959,0,0,0,0,1.917h3.3a.959.959,0,0,0,0-1.917ZM9.444,2.115a.461.461,0,0,0-.178.036.479.479,0,0,0-.294.442V5.751a2.381,2.381,0,0,0,2.361,2.4h3.112a.47.47,0,0,0,.436-.3.485.485,0,0,0-.105-.522l-5-5.069A.473.473,0,0,0,9.444,2.115Z" transform="translate(0 0)" fill="#00a050"/>
  </g>
</svg>
