<svg xmlns="http://www.w3.org/2000/svg" xmlns:xlink="http://www.w3.org/1999/xlink" width="21.865" height="23.108" viewBox="0 0 21.865 23.108">
  <defs>
    <clipPath id="clip-path">
      <rect width="21.865" height="23.108" fill="none"/>
    </clipPath>
  </defs>
  <g id="_Icons_12_Settings" data-name="_Icons / 12 Settings" clip-path="url(#clip-path)">
    <path id="_12_Settings" data-name="12 Settings" d="M10.933,23.108a11.848,11.848,0,0,1-2.1-.187.959.959,0,0,1-.789-.962v-.813a.961.961,0,0,0-.592-.885,9.242,9.242,0,0,1-2.318-1.346.962.962,0,0,0-1.068-.073l-.7.409a.962.962,0,0,1-1.212-.212,11.273,11.273,0,0,1-1.091-1.51c-.1-.164-.175-.294-.236-.409A11.056,11.056,0,0,1,.052,15.4.964.964,0,0,1,.48,14.257l.7-.4a.959.959,0,0,0,.482-.962,9.3,9.3,0,0,1,0-2.674.959.959,0,0,0-.482-.962l-.7-.4A.964.964,0,0,1,.052,7.706,11.031,11.031,0,0,1,.821,5.984c.074-.137.157-.277.236-.409a11.277,11.277,0,0,1,1.092-1.51.962.962,0,0,1,1.216-.208l.708.4A.962.962,0,0,0,5.141,4.19,9.22,9.22,0,0,1,7.455,2.848a.958.958,0,0,0,.611-.885V1.15A.959.959,0,0,1,8.855.187a11.819,11.819,0,0,1,4.194,0,.959.959,0,0,1,.789.962v.813a.96.96,0,0,0,.592.885,9.229,9.229,0,0,1,2.3,1.342.964.964,0,0,0,1.068.073l.62-.356a1,1,0,0,1,1.3.154,11.285,11.285,0,0,1,1.067,1.511c.087.142.166.279.236.408A11.154,11.154,0,0,1,21.8,7.7a.964.964,0,0,1-.429,1.155l-.606.351a1,1,0,0,0-.563,1.015,9.3,9.3,0,0,1,0,2.674.958.958,0,0,0,.481.962l.7.4a.964.964,0,0,1,.429,1.145,11.112,11.112,0,0,1-.765,1.727c-.063.118-.14.251-.236.408a11.3,11.3,0,0,1-1.091,1.511.963.963,0,0,1-1.222.207l-.7-.409a.965.965,0,0,0-1.054.073A9.193,9.193,0,0,1,14.43,20.26a.957.957,0,0,0-.611.885v.813a.959.959,0,0,1-.789.962A11.848,11.848,0,0,1,10.933,23.108Zm0-15.883a4.328,4.328,0,1,0,4.329,4.329A4.334,4.334,0,0,0,10.933,7.226Z" transform="translate(0 0)" fill="#00a050"/>
  </g>
</svg>
