<svg id="warehouse" xmlns="http://www.w3.org/2000/svg" width="17" height="18.243" viewBox="0 0 17 18.243">
  <path id="Path_158" data-name="Path 158" d="M254.336,421.934v2.121h2v-2.121Zm0,0" transform="translate(-245.292 -406.9)" fill="#00a050"/>
  <path id="Path_159" data-name="Path 159" d="M167.6,421.934v2.121h2v-2.121Zm0,0" transform="translate(-161.651 -406.9)" fill="#00a050"/>
  <path id="Path_160" data-name="Path 160" d="M210.969,331.867h2v2.121h-2Zm0,0" transform="translate(-203.47 -320.043)" fill="#00a050"/>
  <path id="Path_161" data-name="Path 161" d="M101.883,249.236h1.253V245.49a.544.544,0,0,1,.544-.544h1v-2.665a.544.544,0,0,1,.544-.544h3.09a.544.544,0,0,1,.544.544v2.665h1a.544.544,0,0,1,.544.544v3.746l1.253.007v-9.708h-9.776v9.708" transform="translate(-98.271 -231)" fill="#00a050"/>
  <path id="Path_162" data-name="Path 162" d="M201.645,122.7h2.666v.555h-2.666Zm0,0" transform="translate(-194.478 -118.327)" fill="#00a050"/>
  <path id="Path_163" data-name="Path 163" d="M17.295,6.458,9.339.119a.544.544,0,0,0-.678,0L.7,6.458A.544.544,0,0,0,.5,6.884V17.7a.544.544,0,0,0,.544.544h1.98V7.991a.544.544,0,0,1,.544-.544H14.432a.544.544,0,0,1,.544.544V18.244h1.98A.544.544,0,0,0,17.5,17.7V6.884a.544.544,0,0,0-.205-.426Zm-5.873-.986a.544.544,0,0,1-.544.544H7.122a.544.544,0,0,1-.544-.544V3.828a.544.544,0,0,1,.544-.544h3.755a.544.544,0,0,1,.544.544Zm0,0" transform="translate(-0.5 -0.001)" fill="#00a050"/>
</svg>
